<?xml version="1.0" encoding="UTF-8" ?>
<!DOCTYPE svg PUBLIC "-//W3C//DTD SVG 1.1//EN" "http://www.w3.org/Graphics/SVG/1.1/DTD/svg11.dtd">
<svg width="512pt" height="512pt" viewBox="0 0 512 512" version="1.1" xmlns="http://www.w3.org/2000/svg">
<g id="#5759c5ff">
<path fill="#5759c5" opacity="1.00" d=" M 174.47 91.34 C 196.58 74.36 224.17 64.68 252.04 64.10 C 281.25 63.32 310.51 72.70 334.13 89.83 C 358.90 107.61 377.81 133.60 386.44 162.89 C 393.53 186.58 393.58 212.25 386.89 236.03 C 378.75 265.39 360.42 291.73 335.89 309.78 C 335.85 351.23 335.86 392.68 335.89 434.13 C 334.98 441.80 327.78 448.36 319.97 448.04 C 316.15 448.24 312.40 446.72 309.51 444.29 C 291.73 427.36 273.77 410.59 255.88 393.77 C 238.01 410.62 220.03 427.35 202.24 444.28 C 196.60 449.32 187.28 449.35 181.58 444.38 C 178.25 441.58 175.82 437.41 175.88 432.97 C 175.85 392.29 175.90 351.61 175.86 310.93 C 176.13 309.55 174.73 308.94 173.90 308.20 C 154.85 293.98 139.64 274.62 130.50 252.66 C 120.93 230.05 117.92 204.77 121.71 180.52 C 127.10 145.55 146.23 112.76 174.47 91.34 M 243.48 96.72 C 226.24 98.72 209.54 105.24 195.56 115.53 C 170.00 134.11 153.74 164.70 152.26 196.23 C 151.24 216.15 156.30 236.31 166.66 253.36 C 179.34 274.57 199.94 290.77 223.37 298.50 C 245.80 306.01 270.85 305.71 292.95 297.14 C 316.19 288.20 335.96 270.64 347.61 248.61 C 359.25 226.97 362.93 201.05 357.17 177.10 C 350.79 149.80 332.71 125.69 308.79 111.21 C 289.42 99.36 266.07 94.01 243.48 96.72 M 207.87 326.98 C 207.86 349.65 207.87 372.31 207.87 394.97 C 220.39 383.15 233.06 371.47 245.43 359.49 C 251.16 354.40 260.75 354.44 266.42 359.60 C 278.76 371.56 291.46 383.14 303.88 395.02 C 303.86 372.42 303.87 349.82 303.88 327.22 C 273.27 338.92 238.46 338.62 207.87 326.98 Z" />
<path fill="#5759c5" opacity="1.00" d=" M 245.54 128.75 C 257.29 126.98 269.47 128.29 280.58 132.52 C 298.88 139.40 314.10 153.94 321.91 171.85 C 328.02 185.61 329.49 201.37 325.96 216.02 C 319.78 242.58 297.51 264.58 270.83 270.31 C 256.09 273.63 240.29 271.85 226.60 265.49 C 209.90 257.82 196.26 243.72 189.24 226.73 C 183.69 213.47 182.39 198.47 185.64 184.46 C 191.95 156.09 216.74 132.91 245.54 128.75 M 248.44 160.72 C 232.31 163.80 218.89 177.60 216.39 193.85 C 214.42 205.54 218.35 217.89 226.33 226.58 C 234.25 235.39 246.16 240.62 258.05 239.87 C 269.45 239.27 280.32 233.33 287.29 224.34 C 294.18 215.65 297.29 203.97 295.20 193.03 C 292.87 180.07 283.70 168.64 271.65 163.37 C 264.43 160.13 256.21 159.18 248.44 160.72 Z" />
</g>
</svg>
